<svg xmlns="http://www.w3.org/2000/svg" width="150" height="100" fill="none" viewBox="0 0 150 100"><g clip-path="url(#clip0)"><path fill="#2196F3" d="M149.762 50.7723C150.245 49.9932 149.976 49.0967 149.081 48.5014L92.8312 11.0014C91.5899 10.2019 89.6115 10.225 88.4124 11.0525C87.2428 11.8599 87.2428 13.1398 88.4124 13.9471L139.331 47.893H3.1251C1.39922 47.8932 0 48.826 0 49.9766C0 51.1272 1.39922 52.06 3.1251 52.06H139.331L88.4188 86.0016C87.1775 86.801 87.1429 88.1198 88.342 88.9475C89.5412 89.775 91.5193 89.7979 92.7609 88.9987C92.787 88.9819 92.8124 88.9649 92.8376 88.9475L149.088 51.4475C149.376 51.2539 149.606 51.0246 149.762 50.7723Z"/><path fill="#fff" d="M90.6249 89.5597C88.8991 89.5619 87.4975 88.6306 87.4943 87.48C87.4928 86.9254 87.8233 86.3931 88.4124 86.0013L142.456 49.9765L88.4124 13.9516C87.2133 13.124 87.2479 11.8051 88.4892 11.0057C89.7003 10.226 91.6201 10.226 92.831 11.0057L149.081 48.5057C150.301 49.3191 150.301 50.6379 149.081 51.4515L92.831 88.9515C92.2456 89.341 91.4523 89.5597 90.6249 89.5597Z"/><path fill="#fff" d="M146.875 52.0598H3.1251C1.39922 52.0598 0 51.1272 0 49.9766C0 48.826 1.39922 47.8932 3.1251 47.8932H146.875C148.601 47.8932 150 48.826 150 49.9766C150 51.1272 148.601 52.0598 146.875 52.0598Z"/></g><defs><clipPath id="clip0"><rect width="150" height="100" fill="#fff"/></clipPath></defs></svg>