<svg xmlns="http://www.w3.org/2000/svg" width="100" height="102" fill="none" viewBox="0 0 100 102"><path fill="#fff" d="M98.7781 94.7359L70.3409 65.7328C75.8493 58.7933 79.1658 49.9755 79.1658 40.3716C79.1658 18.1125 61.4076 0.000854492 39.5828 0.000854492C17.758 0.000854492 0 18.1123 0 40.3714C0 62.6305 17.7582 80.7421 39.583 80.7421C48.9995 80.7421 57.6453 77.3595 64.4494 71.7416L92.8866 100.745C93.6991 101.573 94.7657 101.99 95.8325 101.99C96.8992 101.99 97.9658 101.573 98.7783 100.745C100.407 99.0832 100.407 96.3974 98.7781 94.7359ZM39.583 72.2429C22.3498 72.2429 8.33332 57.9475 8.33332 40.3714C8.33332 22.7952 22.3498 8.49981 39.583 8.49981C56.8162 8.49981 70.8327 22.7952 70.8327 40.3714C70.8327 57.9475 56.816 72.2429 39.583 72.2429Z"/></svg>